<svg xmlns="http://www.w3.org/2000/svg" width="30" height="30" viewBox="0 0 30 30" fill="none">
  <path d="M5.13755 12.6312C5.40766 11.9946 5.73791 11.3852 6.1238 10.8113L8.1963 12.21C7.599 13.0979 7.17998 14.0935 6.96255 15.1412C6.74097 16.2335 6.74097 17.359 6.96255 18.4513C7.07111 18.9788 7.23191 19.4943 7.44255 19.99C7.64732 20.4771 7.8998 20.9427 8.1963 21.38C8.78879 22.2538 9.5422 23.0068 10.4163 23.5987C11.3035 24.1958 12.2981 24.6148 13.3451 24.8325C14.4367 25.0512 15.5609 25.0512 16.6526 24.8325C18.2237 24.5097 19.6655 23.7326 20.7988 22.5975C21.5474 21.8484 22.145 20.9623 22.5588 19.9875C22.7676 19.4918 22.9275 18.9768 23.0363 18.45C23.3663 16.8232 23.1999 15.1348 22.5588 13.6038C22.1465 12.6291 21.5493 11.7436 20.8001 10.9963C20.0512 10.2489 19.166 9.65188 18.1926 9.2375C17.6988 9.02875 17.1801 8.8675 16.6551 8.76C16.5213 8.7325 16.3851 8.72 16.2501 8.69875V12.5L10.0001 7.5L16.2501 2.5V6.1725C16.5539 6.20614 16.8563 6.25243 17.1563 6.31125C18.5261 6.59195 19.8272 7.13989 20.9851 7.92375C23.0419 9.31128 24.5531 11.3701 25.2604 13.7483C25.9676 16.1265 25.827 18.6765 24.8626 20.9625C24.3256 22.2353 23.5466 23.3917 22.5688 24.3675C21.5923 25.3421 20.4376 26.12 19.1676 26.6587C17.1709 27.5035 14.9645 27.7211 12.8413 27.2825C11.1417 26.9312 9.55286 26.1726 8.2112 25.0717C6.86954 23.9709 5.81521 22.5607 5.1388 20.9625C4.8638 20.3125 4.65255 19.6362 4.5138 18.9525C4.22399 17.5296 4.22399 16.0629 4.5138 14.64C4.6562 13.9518 4.8651 13.2791 5.13755 12.6312Z" fill="#1C1C1C"/>
</svg>