<svg xmlns="http://www.w3.org/2000/svg" width="48" height="47" viewBox="0 0 48 47" fill="none">
  <path d="M25.7237 4.93743C25.049 3.66213 22.9508 3.66213 22.2761 4.93743L4.72607 38.0874C4.56809 38.3846 4.48977 38.7175 4.49874 39.0539C4.50771 39.3903 4.60367 39.7186 4.77726 40.0069C4.95086 40.2952 5.19617 40.5336 5.4893 40.6989C5.78242 40.8642 6.11336 40.9507 6.44987 40.95H41.5499C41.8862 40.9507 42.2169 40.8643 42.5098 40.6991C42.8027 40.5339 43.0478 40.2957 43.2213 40.0075C43.3947 39.7194 43.4905 39.3913 43.4993 39.0551C43.5082 38.7189 43.4298 38.3862 43.2717 38.0894L25.7237 4.93743ZM25.9499 35.1H22.0499V31.2H25.9499V35.1ZM22.0499 27.3V17.55H25.9499L25.9518 27.3H22.0499Z" fill="#F20519"/>
</svg>