<svg xmlns="http://www.w3.org/2000/svg" width="26" height="26" viewBox="0 0 26 26" fill="none">
  <path d="M13.0003 2.16667C7.02683 2.16667 2.16699 7.0265 2.16699 13C2.16699 18.9735 7.02683 23.8333 13.0003 23.8333C18.9738 23.8333 23.8337 18.9735 23.8337 13C23.8337 7.0265 18.9738 2.16667 13.0003 2.16667ZM13.0003 21.6667C8.22174 21.6667 4.33366 17.7786 4.33366 13C4.33366 8.22142 8.22174 4.33333 13.0003 4.33333C17.7789 4.33333 21.667 8.22142 21.667 13C21.667 17.7786 17.7789 21.6667 13.0003 21.6667Z" fill="#1C1C1C"/>
  <path d="M10.8318 14.7193L8.34119 12.233L6.81152 13.767L10.8339 17.7808L18.0988 10.5159L16.5669 8.98409L10.8318 14.7193Z" fill="#1C1C1C"/>
</svg>