<svg xmlns="http://www.w3.org/2000/svg" width="25" height="25" viewBox="0 0 25 25" fill="none">
  <path d="M12.4999 2.08331C6.85304 2.08331 2.08325 6.8531 2.08325 12.5C2.08325 18.1469 6.85304 22.9166 12.4999 22.9166C18.1468 22.9166 22.9166 18.1469 22.9166 12.5C22.9166 6.8531 18.1468 2.08331 12.4999 2.08331ZM12.4999 7.29165C14.2989 7.29165 15.6249 8.61665 15.6249 10.4166C15.6249 12.2166 14.2989 13.5416 12.4999 13.5416C10.702 13.5416 9.37492 12.2166 9.37492 10.4166C9.37492 8.61665 10.702 7.29165 12.4999 7.29165ZM7.18117 17.4708C8.11554 16.0958 9.67388 15.1791 11.4583 15.1791H13.5416C15.327 15.1791 16.8843 16.0958 17.8187 17.4708C16.4874 18.8958 14.5989 19.7916 12.4999 19.7916C10.401 19.7916 8.51242 18.8958 7.18117 17.4708Z" fill="black"/>
</svg>