<svg width="149" height="191" viewBox="0 0 149 191" fill="none" xmlns="http://www.w3.org/2000/svg">
<rect width="149" height="191" fill="white"/>
<path d="M27.4494 74.8006C10.3652 94.3393 2.67641 115.815 5.09451 137.197C6.10113 146.169 8.66424 154.08 13.4823 163.288C17.391 170.741 25.1881 181.837 26.9225 182.444C28.4306 182.972 38.118 180.449 45.5623 177.562C58.5699 172.568 70.3204 163.668 78.7713 152.346C81.9663 148.056 84.7447 142.706 87.1224 135.943C89.5309 129.092 90.5482 124.896 90.9218 117.643C91.7514 101.54 89.7644 91.2108 85.2729 78.6526C82.6534 71.1441 78.752 63.1867 77.9379 63.5777C77.5572 63.6979 78.3317 67.7718 79.476 72.4822C82.3649 84.0568 84.4989 102.381 83.9901 111.329C82.8676 131.217 76.277 146.656 63.4349 159.398C57.3077 165.534 52.1367 168.456 49.2712 167.453C46.8582 166.608 47.1254 165.603 51.3754 159.993C56.993 152.41 62.8046 140.164 66.8591 127.133C70.9664 113.952 72.531 105.373 73.1401 92.9956C73.7113 79.7593 72.3342 68.4605 70.7228 73.3046C70.4592 74.0574 69.063 79.7374 67.6332 85.9971C66.1279 92.2304 61.637 107.474 57.5407 119.899C51.2759 139.001 49.3592 143.991 45.1707 152.327C40.6959 161.239 39.9235 162.236 37.3794 163.458C32.1894 165.951 27.0682 161.96 27.5368 155.787C27.9154 150.595 31.4721 137.052 35.2411 126.288C39.4318 114.319 44.0039 103.92 53.7895 84.1922C62.012 67.7196 61.8576 67.919 60.8018 67.5494C58.6904 66.8101 43.9242 85.0477 36.1827 97.9705C31.3155 106.069 29.9596 108.974 25.6899 121.169C21.4991 133.138 20.6975 136.153 20.0444 142.854C18.8056 155.096 18.8056 155.096 16.9958 154.462C15.0352 153.776 14.4385 151.369 13.7218 141.57C11.5409 110.807 30.812 74.6259 59.4358 55.4939C64.4426 52.1802 69.2038 49.4281 73.7545 47.2267C74.3648 46.9424 74.9714 46.6573 75.5737 46.371C74.971 46.6464 74.3647 46.9316 73.7545 47.2267C57.6752 54.7171 39.0022 61.6331 27.4494 74.8006Z" fill="#251B4D"/>
<path d="M46.7593 6.35252C42.2919 6.05591 35.0278 6.9772 31.6996 8.26251L29.2609 9.18325L30.9616 10.3703C34.7891 12.978 42.193 21.5701 45.2979 26.967C49.0215 33.2565 52.9398 36.572 57.2263 37.1433C60.7061 37.6012 68.3245 36.6349 68.6408 35.7316C69.0889 34.4519 63.8755 26.3732 60.1153 22.606C58.0486 20.5303 54.8507 18.0585 52.9955 17.071C48.3575 14.602 49.0545 13.5785 54.1823 15.3739C60.6674 17.6445 66.577 23.0094 71.0627 30.7488C72.9113 33.9312 76.9723 36.1136 77.6313 34.2317C78.2902 32.3498 74.7768 23.7678 71.6536 19.632C69.9184 17.3344 66.9051 14.3357 64.88 12.8662C60.5547 9.74614 52.0599 6.68733 46.7593 6.35252Z" fill="#7FB50C"/>
<path d="M107.846 32.5577C110.229 32.6876 111.567 32.8937 113.897 33.4088C123.618 35.5579 130.261 40.8285 135.658 46.69C140.633 52.0655 148.666 67.8072 147.004 69.1689C146.672 69.3908 144.908 69.1111 143.173 68.5038C137.216 66.418 126.521 65.2928 118.201 65.8444C107.781 66.5904 101.662 65.2085 97.6795 61.1099C94.4926 57.8814 89.3392 49.1477 89.84 47.7174C90.3408 46.2872 98.8151 45.5361 106.687 46.2642C112.112 46.7271 114.83 47.4253 120.806 49.9403L128.216 52.957L125.674 50.5459C121.314 46.3153 114.116 42.6964 106.911 41.2723C98.2832 39.5889 89.0163 40.797 78.653 45.0368C90.8624 39.5513 95.4658 31.8828 107.846 32.5577Z" fill="#7FB50C"/>
</svg>
